<svg xmlns="http://www.w3.org/2000/svg" xmlns:xlink="http://www.w3.org/1999/xlink" width="1024" zoomAndPan="magnify" viewBox="0 0 768 767.999994" height="1024" preserveAspectRatio="xMidYMid meet" version="1.0"><defs><clipPath id="1221090812"><path d="M 217 49 L 573 49 L 573 583 L 217 583 Z M 217 49 " clip-rule="nonzero"/></clipPath><clipPath id="bec5c3bb5d"><path d="M 568.789062 587.066406 L 212.65625 577.972656 L 226.261719 44.898438 L 582.394531 53.988281 Z M 568.789062 587.066406 " clip-rule="nonzero"/></clipPath><clipPath id="9008ba9c06"><path d="M 568.789062 587.066406 L 212.65625 577.972656 L 226.261719 44.898438 L 582.394531 53.988281 Z M 568.789062 587.066406 " clip-rule="nonzero"/></clipPath><clipPath id="4846fdd67f"><path d="M 436 235 L 573 235 L 573 484.050781 L 436 484.050781 Z M 436 235 " clip-rule="nonzero"/></clipPath><clipPath id="bc8ba3245d"><path d="M 225 76.800781 L 400 76.800781 L 400 349 L 225 349 Z M 225 76.800781 " clip-rule="nonzero"/></clipPath></defs><path fill="#ff1616" d="M 400.28125 0 C 258.851562 0 144.207031 114.617188 144.207031 256.007812 C 144.203125 303.996094 157.410156 348.882812 180.394531 387.265625 L 400.273438 768.03125 L 620.328125 387 C 643.199219 348.679688 656.351562 303.878906 656.351562 256.011719 C 656.359375 114.617188 541.714844 0 400.28125 0 Z M 400.28125 341.675781 C 352.957031 341.675781 314.589844 303.320312 314.601562 256.003906 C 314.601562 208.695312 352.96875 170.339844 400.28125 170.339844 C 447.617188 170.339844 485.984375 208.695312 485.984375 256.003906 C 485.980469 303.320312 447.617188 341.675781 400.28125 341.675781 Z M 400.28125 341.675781 " fill-opacity="1" fill-rule="nonzero"/><g clip-path="url(#1221090812)"><g clip-path="url(#bec5c3bb5d)"><g clip-path="url(#9008ba9c06)"><path fill="#ff1616" d="M 390.742188 582.519531 C 488.78125 585.023438 570.28125 507.492188 572.789062 409.355469 C 573.640625 376.042969 565.277344 344.65625 550.027344 317.605469 L 404.355469 49.421875 L 245.066406 310.007812 C 228.535156 336.199219 218.621094 367.0625 217.773438 400.289062 C 215.261719 498.433594 292.703125 580.015625 390.742188 582.519531 Z M 396.796875 345.359375 C 429.601562 346.195312 455.515625 373.5 454.671875 406.339844 C 453.832031 439.175781 426.558594 465.125 393.761719 464.285156 C 360.949219 463.449219 335.03125 436.144531 335.871094 403.308594 C 336.710938 370.464844 363.984375 344.519531 396.796875 345.359375 Z M 396.796875 345.359375 " fill-opacity="1" fill-rule="nonzero"/></g></g></g><path fill="#1498b7" d="M 312.558594 88.558594 C 316.894531 88.558594 320.441406 92.105469 320.441406 96.472656 C 320.441406 100.839844 316.894531 104.355469 312.558594 104.355469 C 308.191406 104.355469 304.644531 100.839844 304.644531 96.472656 C 304.644531 92.105469 308.191406 88.558594 312.558594 88.558594 Z M 312.558594 88.558594 " fill-opacity="1" fill-rule="nonzero"/><g clip-path="url(#4846fdd67f)"><path fill="#fec4b9" d="M 555.320312 357.375 L 555.355469 357.410156 L 555.355469 484.050781 L 468.28125 484.050781 L 468.28125 388.214844 L 499.648438 388.214844 C 506.183594 388.214844 511.503906 393.503906 511.503906 400.039062 L 511.503906 411.140625 L 494.230469 411.140625 L 494.230469 429.433594 L 542.445312 429.433594 L 542.445312 411.140625 L 525.167969 411.140625 L 525.167969 400.039062 C 525.167969 385.949219 513.738281 374.519531 499.648438 374.519531 L 468.28125 374.519531 L 468.28125 360.132812 C 455.4375 356.0625 445.78125 344.632812 444.433594 330.574219 L 436.878906 250.867188 C 436.15625 243.507812 441.378906 236.910156 448.671875 235.855469 C 449.328125 235.757812 449.953125 235.726562 450.609375 235.726562 C 457.410156 235.726562 463.355469 240.71875 464.304688 247.648438 L 470.285156 290.3125 L 472.222656 268.4375 L 472.222656 269.027344 C 472.222656 276.910156 478.59375 283.28125 486.476562 283.28125 L 487.691406 283.28125 C 495.050781 283.28125 501.125 277.667969 501.882812 270.472656 L 501.882812 277.960938 C 501.882812 285.121094 507.695312 290.933594 514.855469 290.933594 L 515.941406 290.933594 C 523.101562 290.933594 528.914062 285.121094 528.914062 277.960938 L 528.914062 276.613281 C 528.914062 283.773438 534.726562 289.589844 541.886719 289.589844 L 542.972656 289.589844 C 543.859375 289.589844 544.746094 289.488281 545.597656 289.324219 C 547.339844 294.777344 552.464844 298.75 558.507812 298.75 C 562.25 298.75 565.601562 297.242188 568.066406 294.777344 C 570.496094 292.3125 572.007812 288.964844 572.007812 285.21875 L 572.007812 328.671875 C 572.007812 340.953125 565.304688 351.695312 555.320312 357.375 Z M 555.320312 357.375 " fill-opacity="1" fill-rule="nonzero"/></g><path fill="#ffd7d2" d="M 572.007812 257.269531 L 572.007812 285.21875 C 572.007812 288.964844 570.496094 292.3125 568.066406 294.777344 C 565.601562 297.242188 562.25 298.75 558.507812 298.75 C 552.464844 298.75 547.339844 294.777344 545.597656 289.324219 C 551.476562 288.109375 555.945312 282.886719 555.945312 276.617188 L 555.945312 247.582031 C 555.945312 246.367188 555.78125 245.183594 555.453125 244.101562 C 556.4375 243.871094 557.457031 243.773438 558.507812 243.773438 C 565.964844 243.773438 572.007812 249.816406 572.007812 257.269531 Z M 572.007812 257.269531 " fill-opacity="1" fill-rule="nonzero"/><path fill="#ffd7d2" d="M 555.453125 244.101562 C 555.78125 245.183594 555.945312 246.367188 555.945312 247.582031 L 555.945312 276.617188 C 555.945312 282.886719 551.476562 288.109375 545.597656 289.324219 C 544.746094 289.488281 543.859375 289.589844 542.972656 289.589844 L 541.886719 289.589844 C 534.726562 289.589844 528.914062 283.773438 528.914062 276.617188 L 528.914062 247.582031 C 528.914062 240.421875 534.726562 234.609375 541.886719 234.609375 L 542.972656 234.609375 C 548.917969 234.609375 553.941406 238.617188 555.453125 244.101562 Z M 555.453125 244.101562 " fill-opacity="1" fill-rule="nonzero"/><path fill="#d8959a" d="M 494.230469 411.140625 L 542.445312 411.140625 L 542.445312 429.433594 L 494.230469 429.433594 Z M 494.230469 411.140625 " fill-opacity="1" fill-rule="nonzero"/><path fill="#ffd7d2" d="M 528.914062 276.617188 L 528.914062 277.960938 C 528.914062 285.121094 523.101562 290.933594 515.941406 290.933594 L 514.855469 290.933594 C 507.695312 290.933594 501.882812 285.121094 501.882812 277.960938 L 501.882812 270.472656 C 501.914062 270.015625 501.949219 269.519531 501.949219 269.027344 L 501.949219 242.558594 C 501.949219 242.066406 501.914062 241.570312 501.882812 241.113281 L 501.882812 237.597656 C 501.882812 230.40625 507.695312 224.625 514.855469 224.625 L 515.941406 224.625 C 523.101562 224.625 528.914062 230.40625 528.914062 237.597656 Z M 528.914062 276.617188 " fill-opacity="1" fill-rule="nonzero"/><path fill="#ad1f48" d="M 525.167969 400.039062 L 525.167969 411.140625 L 511.503906 411.140625 L 511.503906 400.039062 C 511.503906 393.503906 506.183594 388.214844 499.648438 388.214844 L 434.152344 388.214844 C 421.542969 388.214844 411.261719 398.460938 411.261719 411.074219 L 411.261719 428.613281 C 411.261719 457.710938 387.613281 481.390625 358.476562 481.390625 C 329.378906 481.390625 305.695312 457.710938 305.695312 428.613281 L 305.695312 374.257812 L 319.390625 374.257812 L 319.390625 428.613281 C 319.390625 450.1875 336.929688 467.695312 358.476562 467.695312 C 380.058594 467.695312 397.597656 450.1875 397.597656 428.613281 L 397.597656 411.074219 C 397.597656 390.90625 413.988281 374.519531 434.152344 374.519531 L 499.648438 374.519531 C 513.738281 374.519531 525.167969 385.949219 525.167969 400.039062 Z M 525.167969 400.039062 " fill-opacity="1" fill-rule="nonzero"/><path fill="#ffd7d2" d="M 501.882812 241.113281 L 501.882812 270.472656 C 501.125 277.667969 495.050781 283.28125 487.691406 283.28125 L 486.476562 283.28125 C 478.59375 283.28125 472.222656 276.910156 472.222656 269.027344 L 472.222656 242.558594 C 472.222656 234.675781 478.59375 228.269531 486.476562 228.269531 L 487.691406 228.269531 C 495.050781 228.269531 501.125 233.886719 501.882812 241.113281 Z M 501.882812 241.113281 " fill-opacity="1" fill-rule="nonzero"/><g clip-path="url(#bc8ba3245d)"><path fill="#c3ddda" d="M 370.632812 116.769531 C 365.34375 111.023438 357.886719 107.769531 350.070312 107.769531 L 331.085938 107.769531 L 331.085938 90.957031 C 331.085938 83.136719 322.773438 76.800781 312.558594 76.800781 C 307.4375 76.800781 302.804688 78.375 299.421875 80.9375 C 296.070312 83.5 294.003906 87.046875 294.003906 90.957031 L 294.003906 107.769531 L 277.679688 107.769531 C 270.320312 107.769531 263.257812 110.660156 258.003906 115.851562 L 225.09375 148.363281 L 225.09375 295.761719 C 225.09375 312.347656 238.527344 325.8125 255.113281 325.8125 L 294.460938 325.8125 L 294.460938 349 L 305.300781 349 L 305.300781 311.886719 L 260.632812 311.886719 C 248.675781 311.886719 238.984375 302.199219 238.984375 290.210938 L 238.984375 168.429688 L 386.101562 168.429688 L 386.101562 290.210938 C 386.101562 302.199219 376.410156 311.886719 364.457031 311.886719 L 319.785156 311.886719 L 319.785156 349 L 330.625 349 L 330.625 325.8125 L 369.972656 325.8125 C 386.5625 325.8125 399.996094 312.347656 399.996094 295.761719 L 399.996094 148.5625 Z M 312.558594 88.558594 C 316.894531 88.558594 320.441406 92.105469 320.441406 96.472656 C 320.441406 100.839844 316.894531 104.355469 312.558594 104.355469 C 308.191406 104.355469 304.644531 100.839844 304.644531 96.472656 C 304.644531 92.105469 308.191406 88.558594 312.558594 88.558594 Z M 312.558594 88.558594 " fill-opacity="1" fill-rule="nonzero"/></g><path fill="#ad1f48" d="M 386.101562 168.429688 L 386.101562 290.210938 C 386.101562 302.199219 376.410156 311.886719 364.457031 311.886719 L 260.632812 311.886719 C 248.675781 311.886719 238.984375 302.199219 238.984375 290.210938 L 238.984375 168.429688 Z M 365.574219 251.917969 L 365.574219 201.699219 L 259.515625 201.699219 L 259.515625 251.917969 Z M 365.574219 251.917969 " fill-opacity="1" fill-rule="nonzero"/><path fill="#1ea6bc" d="M 365.574219 201.699219 L 365.574219 251.917969 L 259.515625 251.917969 L 259.515625 201.699219 Z M 287.628906 232.410156 C 287.628906 227.976562 284.082031 213.128906 279.648438 213.128906 C 275.246094 213.128906 271.667969 227.976562 271.667969 232.410156 C 271.667969 236.808594 275.246094 240.390625 279.648438 240.390625 C 284.082031 240.390625 287.628906 236.808594 287.628906 232.410156 Z M 287.628906 232.410156 " fill-opacity="1" fill-rule="nonzero"/><path fill="#ffc05a" d="M 336.570312 354.714844 L 336.570312 368.542969 C 336.570312 371.726562 334.007812 374.257812 330.855469 374.257812 L 294.230469 374.257812 C 291.078125 374.257812 288.515625 371.726562 288.515625 368.542969 L 288.515625 354.714844 C 288.515625 351.5625 291.078125 349 294.230469 349 L 330.855469 349 C 334.007812 349 336.570312 351.5625 336.570312 354.714844 Z M 336.570312 354.714844 " fill-opacity="1" fill-rule="nonzero"/><path fill="#ad1f48" d="M 305.300781 311.886719 L 319.785156 311.886719 L 319.785156 349 L 305.300781 349 Z M 305.300781 311.886719 " fill-opacity="1" fill-rule="nonzero"/><path fill="#d2363e" d="M 279.648438 213.128906 C 284.082031 213.128906 287.628906 227.976562 287.628906 232.410156 C 287.628906 236.808594 284.082031 240.390625 279.648438 240.390625 C 275.246094 240.390625 271.667969 236.808594 271.667969 232.410156 C 271.667969 227.976562 275.246094 213.128906 279.648438 213.128906 Z M 279.648438 213.128906 " fill-opacity="1" fill-rule="nonzero"/><path fill="#f7b6ad" d="M 494.726562 325.777344 C 494.664062 325.777344 494.601562 325.777344 494.539062 325.773438 C 492.730469 325.675781 491.34375 324.125 491.445312 322.316406 C 491.449219 322.191406 492.03125 309.699219 485.464844 302.707031 C 478.667969 295.476562 469.710938 293.546875 469.625 293.527344 C 468.269531 293.242188 467.226562 292.136719 467.03125 290.765625 L 461.054688 248.101562 C 460.800781 246.304688 462.054688 244.644531 463.851562 244.394531 C 465.640625 244.121094 467.308594 245.394531 467.5625 247.191406 L 473.242188 287.703125 C 476.894531 288.84375 484.199219 291.753906 490.257812 298.207031 C 498.777344 307.277344 498.042969 322.054688 498.007812 322.675781 C 497.902344 324.425781 496.457031 325.777344 494.726562 325.777344 Z M 494.726562 325.777344 " fill-opacity="1" fill-rule="nonzero"/><path fill="#ffd7d2" d="M 499.058594 358.460938 L 478.726562 358.460938 C 476.464844 358.460938 474.238281 358.222656 472.082031 357.757812 C 470.457031 357.40625 468.84375 358.378906 468.335938 359.964844 C 467.738281 361.835938 468.90625 363.796875 470.828125 364.207031 C 473.398438 364.753906 476.042969 365.03125 478.726562 365.03125 L 499.054688 365.03125 C 500.871094 365.03125 502.339844 363.5625 502.339844 361.746094 C 502.339844 359.929688 500.871094 358.460938 499.058594 358.460938 Z M 499.058594 358.460938 " fill-opacity="1" fill-rule="nonzero"/><path fill="#f7b6ad" d="M 487.691406 286.566406 L 486.476562 286.566406 C 476.808594 286.566406 468.9375 278.699219 468.9375 269.027344 L 468.9375 242.558594 C 468.9375 240.746094 470.40625 239.273438 472.222656 239.273438 C 474.039062 239.273438 475.507812 240.746094 475.507812 242.558594 L 475.507812 269.027344 C 475.507812 275.078125 480.425781 279.996094 486.476562 279.996094 L 487.691406 279.996094 C 493.332031 279.996094 498.027344 275.753906 498.617188 270.132812 C 498.632812 269.832031 498.667969 269.429688 498.667969 269.027344 L 498.667969 242.558594 C 498.667969 240.746094 500.132812 239.273438 501.949219 239.273438 C 503.765625 239.273438 505.234375 240.746094 505.234375 242.558594 L 505.234375 269.027344 C 505.234375 269.585938 505.199219 270.144531 505.164062 270.667969 C 504.207031 279.796875 496.703125 286.566406 487.691406 286.566406 Z M 487.691406 286.566406 " fill-opacity="1" fill-rule="nonzero"/><path fill="#f7b6ad" d="M 470.289062 293.59375 C 470.191406 293.59375 470.089844 293.589844 469.996094 293.582031 C 468.183594 293.421875 466.851562 291.828125 467.011719 290.023438 L 468.949219 268.148438 C 469.113281 266.34375 470.726562 265.027344 472.511719 265.167969 C 474.320312 265.328125 475.65625 266.921875 475.492188 268.726562 L 473.554688 290.597656 C 473.40625 292.308594 471.972656 293.59375 470.289062 293.59375 Z M 470.289062 293.59375 " fill-opacity="1" fill-rule="nonzero"/><path fill="#f7b6ad" d="M 515.941406 294.21875 L 514.855469 294.21875 C 505.890625 294.21875 498.597656 286.925781 498.597656 277.960938 L 498.597656 241.113281 C 498.597656 239.300781 500.066406 237.828125 501.882812 237.828125 C 503.699219 237.828125 505.167969 239.300781 505.167969 241.113281 L 505.167969 277.960938 C 505.167969 283.304688 509.511719 287.648438 514.855469 287.648438 L 515.941406 287.648438 C 521.285156 287.648438 525.628906 283.304688 525.628906 277.960938 L 525.628906 276.613281 C 525.628906 274.800781 527.097656 273.332031 528.914062 273.332031 C 530.730469 273.332031 532.199219 274.800781 532.199219 276.613281 L 532.199219 277.960938 C 532.199219 286.925781 524.90625 294.21875 515.941406 294.21875 Z M 515.941406 294.21875 " fill-opacity="1" fill-rule="nonzero"/><path fill="#f7b6ad" d="M 542.972656 292.871094 L 541.886719 292.871094 C 532.925781 292.871094 525.632812 285.578125 525.632812 276.617188 L 525.632812 247.582031 C 525.632812 245.769531 527.101562 244.296875 528.917969 244.296875 C 530.734375 244.296875 532.203125 245.769531 532.203125 247.582031 L 532.203125 276.617188 C 532.203125 281.957031 536.546875 286.304688 541.886719 286.304688 L 542.972656 286.304688 C 543.59375 286.304688 544.273438 286.234375 544.976562 286.097656 C 549.414062 285.183594 552.660156 281.1875 552.660156 276.613281 L 552.660156 247.582031 C 552.660156 245.769531 554.128906 244.296875 555.945312 244.296875 C 557.761719 244.296875 559.230469 245.769531 559.230469 247.582031 L 559.230469 276.617188 C 559.230469 284.289062 553.777344 290.988281 546.261719 292.542969 C 545.101562 292.765625 544.007812 292.871094 542.972656 292.871094 Z M 542.972656 292.871094 " fill-opacity="1" fill-rule="nonzero"/><path fill="#f7b6ad" d="M 558.507812 302.035156 C 551.152344 302.035156 544.707031 297.328125 542.46875 290.328125 C 542.464844 290.320312 542.460938 290.3125 542.460938 290.308594 C 542.347656 289.960938 542.277344 289.578125 542.277344 289.226562 C 542.277344 287.410156 543.746094 285.941406 545.5625 285.941406 C 547.054688 285.941406 548.316406 286.941406 548.714844 288.304688 C 548.71875 288.308594 548.71875 288.320312 548.722656 288.328125 C 550.089844 292.601562 554.015625 295.46875 558.507812 295.46875 C 561.230469 295.46875 563.796875 294.398438 565.742188 292.457031 C 567.65625 290.519531 568.71875 287.941406 568.71875 285.222656 L 568.71875 257.273438 C 568.71875 255.460938 570.1875 253.988281 572.003906 253.988281 C 573.820312 253.988281 575.289062 255.460938 575.289062 257.273438 L 575.289062 285.222656 C 575.289062 289.675781 573.554688 293.894531 570.402344 297.085938 C 567.207031 300.28125 562.984375 302.035156 558.507812 302.035156 Z M 558.507812 302.035156 " fill-opacity="1" fill-rule="nonzero"/><path fill="#ffd7d2" d="M 555.230469 357.210938 C 554.410156 355.789062 552.640625 355.15625 551.148438 355.835938 C 547.34375 357.558594 543.175781 358.460938 538.933594 358.460938 L 534.496094 358.460938 C 532.679688 358.460938 531.210938 359.925781 531.210938 361.742188 C 531.210938 363.558594 532.679688 365.027344 534.496094 365.027344 L 538.933594 365.027344 C 544.054688 365.027344 549.097656 363.949219 553.710938 361.882812 C 555.496094 361.082031 556.210938 358.90625 555.230469 357.210938 Z M 555.230469 357.210938 " fill-opacity="1" fill-rule="nonzero"/><path fill="#f9b132" d="M 343.863281 222.261719 L 298.371094 222.261719 C 296.554688 222.261719 295.085938 220.789062 295.085938 218.976562 C 295.085938 217.164062 296.554688 215.691406 298.371094 215.691406 L 343.863281 215.691406 C 345.679688 215.691406 347.144531 217.164062 347.144531 218.976562 C 347.144531 220.789062 345.675781 222.261719 343.863281 222.261719 Z M 343.863281 222.261719 " fill-opacity="1" fill-rule="nonzero"/><path fill="#f9b132" d="M 343.863281 237.960938 L 298.371094 237.960938 C 296.554688 237.960938 295.085938 236.488281 295.085938 234.675781 C 295.085938 232.863281 296.554688 231.390625 298.371094 231.390625 L 343.863281 231.390625 C 345.679688 231.390625 347.144531 232.863281 347.144531 234.675781 C 347.144531 236.488281 345.675781 237.960938 343.863281 237.960938 Z M 343.863281 237.960938 " fill-opacity="1" fill-rule="nonzero"/></svg>