<svg xmlns="http://www.w3.org/2000/svg" xmlns:xlink="http://www.w3.org/1999/xlink" width="1024" zoomAndPan="magnify" viewBox="0 0 768 767.999994" height="1024" preserveAspectRatio="xMidYMid meet" version="1.0"><defs><clipPath id="6ce07fc499"><path d="M 183.335938 76.800781 L 616.835938 76.800781 L 616.835938 486 L 183.335938 486 Z M 183.335938 76.800781 " clip-rule="nonzero"/></clipPath></defs><path fill="#ff1616" d="M 400.28125 0 C 258.851562 0 144.207031 114.617188 144.207031 256.007812 C 144.203125 303.996094 157.410156 348.882812 180.394531 387.265625 L 400.273438 768.03125 L 620.328125 387 C 643.199219 348.679688 656.351562 303.878906 656.351562 256.011719 C 656.359375 114.617188 541.714844 0 400.28125 0 Z M 400.28125 341.675781 C 352.957031 341.675781 314.589844 303.320312 314.601562 256.003906 C 314.601562 208.695312 352.96875 170.339844 400.28125 170.339844 C 447.617188 170.339844 485.984375 208.695312 485.984375 256.003906 C 485.980469 303.320312 447.617188 341.675781 400.28125 341.675781 Z M 400.28125 341.675781 " fill-opacity="1" fill-rule="nonzero"/><path fill="#00c2cb" d="M 538.023438 95.027344 C 524.457031 133.507812 521.5625 174.464844 519.132812 206.34375 C 518.949219 209.722656 518.785156 213.152344 518.621094 216.601562 C 526.285156 227.203125 539.578125 244.289062 539.851562 243.921875 C 585.433594 227.390625 609.09375 199.234375 609.09375 199.234375 C 596.84375 170.757812 576.5 138.695312 553.511719 111.234375 C 544.554688 100.515625 540.914062 96.070312 538.023438 95.027344 " fill-opacity="1" fill-rule="nonzero"/><path fill="#00c2cb" d="M 262.171875 95.023438 C 259.277344 96.066406 255.640625 100.511719 246.683594 111.230469 C 223.695312 138.691406 203.347656 170.757812 191.101562 199.234375 C 191.101562 199.234375 214.761719 227.386719 260.34375 243.921875 C 260.621094 244.289062 273.90625 227.203125 281.570312 216.597656 C 281.410156 213.148438 281.246094 209.722656 281.0625 206.34375 C 278.628906 174.460938 275.738281 133.503906 262.171875 95.023438 " fill-opacity="1" fill-rule="nonzero"/><path fill="#00c2cb" d="M 536.660156 94.75 C 521.128906 94.585938 479.34375 87.429688 463.808594 78.679688 C 463.738281 78.910156 463.667969 79.140625 463.597656 79.375 C 463.394531 80.09375 463.15625 80.855469 462.882812 81.714844 C 437.582031 142 362.621094 142.027344 337.316406 81.714844 C 336.945312 80.578125 336.644531 79.605469 336.390625 78.679688 C 320.855469 87.429688 279.070312 94.585938 263.535156 94.75 C 263.421875 94.75 263.304688 94.769531 263.191406 94.769531 C 279.835938 132.765625 284.046875 174.277344 287.335938 205.925781 C 296.339844 319.535156 282.820312 431.222656 270.550781 470.699219 L 271.128906 470.882812 C 348.402344 485.421875 453.738281 485.050781 529.066406 470.882812 L 529.644531 470.699219 C 517.375 431.222656 503.855469 319.535156 512.863281 205.925781 C 516.148438 174.277344 520.382812 132.765625 537.007812 94.769531 C 536.890625 94.769531 536.777344 94.75 536.660156 94.75 " fill-opacity="1" fill-rule="nonzero"/><path fill="#dedddb" d="M 461.121094 80.902344 C 461.609375 80.09375 462.050781 79.351562 462.394531 78.679688 L 462.417969 78.679688 C 462.441406 78.636719 462.460938 78.585938 462.488281 78.542969 C 462.441406 78.566406 462.371094 78.609375 462.324219 78.636719 C 428.179688 102.78125 376.347656 103.429688 341.230469 80.902344 C 340.09375 80.164062 338.960938 79.417969 337.871094 78.636719 C 337.824219 78.609375 337.753906 78.566406 337.710938 78.542969 C 338.101562 79.257812 338.566406 80.042969 339.074219 80.902344 C 371.714844 136.144531 430.007812 133.597656 461.121094 80.902344 " fill-opacity="1" fill-rule="nonzero"/><g clip-path="url(#6ce07fc499)"><path fill="#1e1b1b" d="M 539.851562 243.921875 C 539.578125 244.289062 526.285156 227.207031 518.625 216.601562 C 518.789062 213.148438 518.949219 209.726562 519.132812 206.34375 C 521.5625 174.460938 524.457031 133.507812 538.023438 95.027344 C 540.917969 96.066406 544.554688 100.515625 553.511719 111.234375 C 576.5 138.691406 596.84375 170.757812 609.09375 199.234375 C 609.09375 199.234375 585.433594 227.386719 539.851562 243.921875 Z M 512.859375 205.925781 C 503.855469 319.535156 517.371094 431.222656 529.644531 470.699219 L 529.066406 470.882812 C 453.738281 485.050781 348.402344 485.421875 271.128906 470.882812 L 270.550781 470.699219 C 282.820312 431.222656 296.339844 319.535156 287.335938 205.925781 C 284.046875 174.277344 279.835938 132.765625 263.1875 94.773438 C 263.304688 94.773438 263.421875 94.75 263.535156 94.75 C 279.070312 94.589844 320.855469 87.429688 336.390625 78.679688 C 336.644531 79.609375 336.945312 80.582031 337.316406 81.714844 C 362.617188 142.027344 437.578125 142.003906 462.882812 81.714844 C 463.15625 80.855469 463.390625 80.09375 463.597656 79.375 C 463.667969 79.144531 463.734375 78.914062 463.804688 78.679688 C 479.339844 87.429688 521.125 94.589844 536.65625 94.75 C 536.773438 94.75 536.886719 94.773438 537.003906 94.773438 C 520.382812 132.765625 516.148438 174.277344 512.859375 205.925781 Z M 260.34375 243.921875 C 214.761719 227.386719 191.101562 199.234375 191.101562 199.234375 C 203.347656 170.757812 223.695312 138.691406 246.683594 111.234375 C 255.640625 100.515625 259.277344 96.066406 262.171875 95.027344 C 275.734375 133.507812 278.628906 174.460938 281.0625 206.34375 C 281.246094 209.726562 281.410156 213.148438 281.570312 216.601562 C 273.90625 227.207031 260.621094 244.289062 260.34375 243.921875 Z M 337.871094 78.636719 C 338.960938 79.421875 340.09375 80.164062 341.226562 80.902344 C 376.347656 103.429688 428.179688 102.785156 462.324219 78.636719 C 462.367188 78.613281 462.4375 78.566406 462.488281 78.542969 C 462.460938 78.589844 462.4375 78.636719 462.417969 78.679688 L 462.394531 78.679688 C 462.046875 79.355469 461.605469 80.09375 461.121094 80.902344 C 430.007812 133.597656 371.714844 136.144531 339.074219 80.902344 C 338.566406 80.046875 338.101562 79.261719 337.710938 78.542969 C 337.753906 78.566406 337.824219 78.613281 337.871094 78.636719 Z M 538 92.503906 C 514.710938 88.199219 477.695312 80.234375 464.175781 77.039062 C 463.925781 76.980469 463.664062 76.945312 463.433594 76.828125 C 463.414062 76.828125 463.390625 76.851562 463.367188 76.851562 L 463.34375 76.851562 C 463.320312 76.851562 463.320312 76.875 463.320312 76.875 C 462.429688 77.375 461.746094 77.660156 461.746094 77.660156 C 423.175781 96.300781 381.066406 96.996094 341.96875 79.308594 C 340.785156 78.773438 339.628906 78.21875 338.449219 77.660156 C 338.449219 77.660156 337.972656 77.488281 336.875 76.875 C 336.875 76.875 336.875 76.851562 336.851562 76.851562 L 336.828125 76.851562 C 336.804688 76.851562 336.78125 76.828125 336.757812 76.828125 C 336.519531 76.949219 336.28125 76.976562 336.019531 77.039062 C 322.5 80.234375 285.480469 88.199219 262.195312 92.503906 C 254.832031 94.65625 250.0625 102.574219 244.113281 108.964844 C 205.269531 150.316406 183.34375 200.671875 183.34375 200.671875 C 197.445312 219.75 233.441406 240.792969 261.199219 248.4375 C 261.246094 248.457031 261.3125 248.503906 261.359375 248.527344 C 262.5625 246.90625 274.765625 231.835938 281.800781 222.132812 C 285.390625 311.664062 279.578125 424.507812 269.53125 470.488281 C 269.371094 471.226562 269.207031 471.96875 269.046875 472.691406 C 269.230469 472.757812 269.695312 472.828125 269.878906 472.898438 C 270.109375 472.964844 270.320312 473.011719 270.433594 473.035156 C 270.550781 473.058594 270.644531 473.082031 270.757812 473.105469 C 339.027344 490.03125 461.167969 490.03125 529.433594 473.105469 C 529.554688 473.082031 529.644531 473.058594 529.761719 473.035156 C 529.875 473.011719 530.082031 472.964844 530.316406 472.898438 C 530.5 472.828125 530.964844 472.757812 531.148438 472.691406 C 530.988281 471.96875 530.824219 471.226562 530.664062 470.488281 C 520.617188 424.507812 514.804688 311.664062 518.394531 222.132812 C 525.429688 231.835938 537.628906 246.90625 538.835938 248.527344 C 538.878906 248.503906 538.953125 248.457031 538.996094 248.4375 C 566.75 240.792969 602.75 219.75 616.847656 200.671875 C 616.847656 200.671875 594.925781 150.316406 556.078125 108.964844 C 550.132812 102.574219 545.363281 94.65625 538 92.503906 " fill-opacity="1" fill-rule="nonzero"/></g></svg>