<svg xmlns="http://www.w3.org/2000/svg" xmlns:xlink="http://www.w3.org/1999/xlink" width="1024" zoomAndPan="magnify" viewBox="0 0 768 767.999994" height="1024" preserveAspectRatio="xMidYMid meet" version="1.0"><defs><clipPath id="22728aa589"><path d="M 217 49 L 573 49 L 573 583 L 217 583 Z M 217 49 " clip-rule="nonzero"/></clipPath><clipPath id="014c8355bc"><path d="M 568.789062 587.066406 L 212.65625 577.972656 L 226.261719 44.898438 L 582.394531 53.988281 Z M 568.789062 587.066406 " clip-rule="nonzero"/></clipPath><clipPath id="04be0d7b2e"><path d="M 568.789062 587.066406 L 212.65625 577.972656 L 226.261719 44.898438 L 582.394531 53.988281 Z M 568.789062 587.066406 " clip-rule="nonzero"/></clipPath><clipPath id="8a4e77deb6"><path d="M 201.070312 76.800781 L 594.070312 76.800781 L 594.070312 469.800781 L 201.070312 469.800781 Z M 201.070312 76.800781 " clip-rule="nonzero"/></clipPath></defs><path fill="#ff1616" d="M 400.28125 0 C 258.851562 0 144.207031 114.617188 144.207031 256.007812 C 144.203125 303.996094 157.410156 348.882812 180.394531 387.265625 L 400.273438 768.03125 L 620.328125 387 C 643.199219 348.679688 656.351562 303.878906 656.351562 256.011719 C 656.359375 114.617188 541.714844 0 400.28125 0 Z M 400.28125 341.675781 C 352.957031 341.675781 314.589844 303.320312 314.601562 256.003906 C 314.601562 208.695312 352.96875 170.339844 400.28125 170.339844 C 447.617188 170.339844 485.984375 208.695312 485.984375 256.003906 C 485.980469 303.320312 447.617188 341.675781 400.28125 341.675781 Z M 400.28125 341.675781 " fill-opacity="1" fill-rule="nonzero"/><g clip-path="url(#22728aa589)"><g clip-path="url(#014c8355bc)"><g clip-path="url(#04be0d7b2e)"><path fill="#ff1616" d="M 390.742188 582.519531 C 488.78125 585.023438 570.28125 507.492188 572.789062 409.355469 C 573.640625 376.042969 565.277344 344.65625 550.027344 317.605469 L 404.355469 49.421875 L 245.066406 310.007812 C 228.535156 336.199219 218.621094 367.0625 217.773438 400.289062 C 215.261719 498.433594 292.703125 580.015625 390.742188 582.519531 Z M 396.796875 345.359375 C 429.601562 346.195312 455.515625 373.5 454.671875 406.339844 C 453.832031 439.175781 426.558594 465.125 393.761719 464.285156 C 360.949219 463.449219 335.03125 436.144531 335.871094 403.308594 C 336.710938 370.464844 363.984375 344.519531 396.796875 345.359375 Z M 396.796875 345.359375 " fill-opacity="1" fill-rule="nonzero"/></g></g></g><g clip-path="url(#8a4e77deb6)"><path fill="#009d44" d="M 201.070312 273.300781 C 201.070312 164.773438 289.046875 76.800781 397.570312 76.800781 C 506.09375 76.800781 594.070312 164.773438 594.070312 273.300781 C 594.070312 381.824219 506.09375 469.800781 397.570312 469.800781 C 289.046875 469.800781 201.070312 381.824219 201.070312 273.300781 " fill-opacity="1" fill-rule="nonzero"/></g><path fill="#ffffff" d="M 498.328125 185.816406 C 490.40625 177.902344 479.992188 173.8125 469.050781 174.328125 C 457.363281 174.867188 445.929688 180.40625 435.984375 190.347656 C 419.617188 206.710938 411.332031 231.21875 416.292969 248.625 C 417.445312 252.671875 416.183594 257.042969 413.082031 259.761719 L 401.117188 270.234375 L 414.660156 282.09375 L 424.355469 271.027344 C 427.074219 267.925781 431.445312 266.667969 435.488281 267.816406 C 452.910156 272.769531 477.429688 264.496094 493.796875 248.136719 C 503.742188 238.195312 509.28125 226.769531 509.824219 215.085938 C 510.332031 204.128906 506.25 193.738281 498.328125 185.816406 " fill-opacity="1" fill-rule="nonzero"/><path fill="#ffffff" d="M 480.324219 345.683594 L 385.875 262.980469 C 383.644531 261.03125 382.3125 258.214844 382.214844 255.253906 C 382.117188 252.296875 383.261719 249.398438 385.355469 247.304688 C 389.820312 242.839844 389.820312 235.578125 385.355469 231.117188 L 329.722656 175.507812 C 327.910156 173.695312 324.96875 173.695312 323.15625 175.507812 C 321.347656 177.316406 321.347656 180.261719 323.15625 182.070312 L 365.191406 224.085938 C 366.089844 224.984375 366.089844 226.433594 365.191406 227.328125 L 356.738281 235.78125 C 355.878906 236.640625 354.355469 236.640625 353.496094 235.78125 L 311.460938 193.761719 C 309.703125 192.007812 306.648438 192.007812 304.894531 193.761719 C 303.085938 195.570312 303.085938 198.515625 304.894531 200.324219 L 346.929688 242.34375 C 347.359375 242.773438 347.601562 243.355469 347.601562 243.964844 C 347.601562 244.570312 347.359375 245.152344 346.929688 245.582031 L 338.476562 254.03125 C 337.582031 254.929688 336.128906 254.929688 335.234375 254.03125 L 293.199219 212.015625 C 291.386719 210.207031 288.441406 210.207031 286.632812 212.015625 C 284.820312 213.824219 284.820312 216.769531 286.632812 218.578125 L 342.265625 274.1875 C 346.730469 278.652344 353.992188 278.652344 358.460938 274.1875 C 360.46875 272.179688 363.222656 271.042969 366.0625 271.042969 C 366.179688 271.042969 366.296875 271.042969 366.414062 271.046875 C 369.375 271.144531 372.191406 272.480469 374.144531 274.707031 L 382.125 283.816406 L 382.128906 283.816406 L 386.675781 289.007812 L 456.882812 369.121094 C 458.679688 371.171875 461.175781 372.351562 463.90625 372.441406 C 466.609375 372.550781 469.199219 371.519531 471.128906 369.589844 L 480.796875 359.925781 C 482.726562 357.996094 483.742188 355.429688 483.652344 352.703125 C 483.5625 349.972656 482.378906 347.484375 480.324219 345.683594 " fill-opacity="1" fill-rule="nonzero"/><path fill="#ffffff" d="M 314.949219 345.683594 C 312.894531 347.484375 311.714844 349.972656 311.625 352.703125 C 311.535156 355.429688 312.546875 357.996094 314.476562 359.925781 L 324.144531 369.589844 C 326.078125 371.519531 328.652344 372.554688 331.371094 372.441406 C 334.101562 372.351562 336.597656 371.171875 338.394531 369.121094 L 394.589844 304.992188 L 380.1875 288.558594 L 314.949219 345.683594 " fill-opacity="1" fill-rule="nonzero"/><path fill="#ffffff" d="M 494.292969 140.433594 C 488.679688 140.433594 484.113281 145 484.113281 150.613281 C 484.113281 156.226562 488.679688 160.796875 494.292969 160.796875 C 499.90625 160.796875 504.476562 156.226562 504.476562 150.613281 C 504.476562 145 499.90625 140.433594 494.292969 140.433594 Z M 494.292969 165.886719 C 485.871094 165.886719 479.019531 159.035156 479.019531 150.613281 C 479.019531 142.191406 485.871094 135.34375 494.292969 135.34375 C 502.714844 135.34375 509.566406 142.191406 509.566406 150.613281 C 509.566406 159.035156 502.714844 165.886719 494.292969 165.886719 " fill-opacity="1" fill-rule="nonzero"/><path fill="#ffffff" d="M 325.28125 413.292969 C 321.632812 413.292969 318.664062 416.261719 318.664062 419.910156 C 318.664062 423.558594 321.632812 426.53125 325.28125 426.53125 C 328.933594 426.53125 331.902344 423.558594 331.902344 419.910156 C 331.902344 416.261719 328.933594 413.292969 325.28125 413.292969 Z M 325.28125 431.621094 C 318.828125 431.621094 313.574219 426.367188 313.574219 419.910156 C 313.574219 413.453125 318.828125 408.203125 325.28125 408.203125 C 331.738281 408.203125 336.992188 413.453125 336.992188 419.910156 C 336.992188 426.367188 331.738281 431.621094 325.28125 431.621094 " fill-opacity="1" fill-rule="nonzero"/><path fill="#ffffff" d="M 351.558594 128.921875 C 350.90625 128.921875 350.253906 128.671875 349.757812 128.175781 C 348.765625 127.183594 348.765625 125.570312 349.757812 124.578125 L 368.476562 105.855469 C 369.46875 104.863281 371.082031 104.863281 372.078125 105.855469 C 373.070312 106.851562 373.070312 108.464844 372.078125 109.457031 L 353.359375 128.175781 C 352.863281 128.671875 352.210938 128.921875 351.558594 128.921875 " fill-opacity="1" fill-rule="nonzero"/><path fill="#ffffff" d="M 370.277344 128.921875 C 369.625 128.921875 368.972656 128.671875 368.476562 128.175781 L 349.757812 109.457031 C 348.765625 108.464844 348.765625 106.851562 349.757812 105.855469 C 350.753906 104.863281 352.363281 104.863281 353.359375 105.855469 L 372.078125 124.578125 C 373.070312 125.570312 373.070312 127.183594 372.078125 128.175781 C 371.582031 128.671875 370.929688 128.921875 370.277344 128.921875 " fill-opacity="1" fill-rule="nonzero"/><path fill="#ffffff" d="M 232.632812 320.644531 C 231.980469 320.644531 231.332031 320.394531 230.832031 319.898438 C 229.839844 318.902344 229.839844 317.292969 230.832031 316.296875 L 243.050781 304.082031 C 244.046875 303.085938 245.65625 303.085938 246.648438 304.082031 C 247.644531 305.074219 247.644531 306.6875 246.648438 307.679688 L 234.433594 319.898438 C 233.933594 320.394531 233.285156 320.644531 232.632812 320.644531 " fill-opacity="1" fill-rule="nonzero"/><path fill="#ffffff" d="M 244.851562 320.644531 C 244.199219 320.644531 243.546875 320.394531 243.050781 319.898438 L 230.832031 307.679688 C 229.839844 306.6875 229.839844 305.074219 230.832031 304.082031 C 231.828125 303.085938 233.4375 303.085938 234.433594 304.082031 L 246.648438 316.296875 C 247.644531 317.292969 247.644531 318.902344 246.648438 319.898438 C 246.152344 320.394531 245.503906 320.644531 244.851562 320.644531 " fill-opacity="1" fill-rule="nonzero"/><path fill="#ffffff" d="M 552.835938 264.644531 C 552.183594 264.644531 551.535156 264.398438 551.035156 263.898438 C 550.042969 262.90625 550.042969 261.296875 551.035156 260.300781 L 563.253906 248.082031 C 564.25 247.089844 565.859375 247.089844 566.851562 248.082031 C 567.847656 249.078125 567.847656 250.6875 566.851562 251.683594 L 554.636719 263.898438 C 554.140625 264.398438 553.488281 264.644531 552.835938 264.644531 " fill-opacity="1" fill-rule="nonzero"/><path fill="#ffffff" d="M 565.054688 264.644531 C 564.402344 264.644531 563.75 264.398438 563.253906 263.898438 L 551.035156 251.683594 C 550.042969 250.6875 550.042969 249.078125 551.035156 248.082031 C 552.03125 247.089844 553.640625 247.089844 554.636719 248.082031 L 566.851562 260.300781 C 567.847656 261.296875 567.847656 262.90625 566.851562 263.898438 C 566.355469 264.398438 565.707031 264.644531 565.054688 264.644531 " fill-opacity="1" fill-rule="nonzero"/></svg>